<?xml version="1.0" standalone="no"?>
<!DOCTYPE svg PUBLIC "-//W3C//DTD SVG 20010904//EN"
 "http://www.w3.org/TR/2001/REC-SVG-20010904/DTD/svg10.dtd">
<svg version="1.0" xmlns="http://www.w3.org/2000/svg"
 width="200.000000pt" height="200.000000pt" viewBox="0 0 200.000000 200.000000"
 preserveAspectRatio="xMidYMid meet">
<metadata>
Created by potrace 1.11, written by Peter Selinger 2001-2013
</metadata>
<g transform="translate(0.000000,200.000000) scale(0.100000,-0.100000)"
fill="#000000" stroke="none">
<path d="M545 1864 c-49 -117 -70 -350 -45 -502 43 -273 219 -580 481 -842
164 -165 367 -294 529 -337 87 -23 218 -22 293 2 60 19 172 88 191 117 15 25
2 32 -26 14 -60 -39 -141 -58 -248 -58 -117 0 -167 9 -279 52 -81 31 -224 121
-300 188 l-45 39 77 56 c42 32 77 60 77 63 0 13 -35 64 -43 64 -5 0 -40 -23
-79 -51 -38 -27 -75 -52 -83 -55 -16 -7 -99 91 -174 206 -104 159 -225 416
-272 580 -25 86 -43 292 -35 408 4 50 4 92 1 92 -2 0 -12 -16 -20 -36z"/>
<path d="M1623 1658 c-18 -6 -33 -15 -33 -20 0 -5 18 -33 40 -63 22 -30 40
-57 40 -60 0 -3 -23 -5 -50 -5 -44 0 -52 3 -62 25 -6 14 -14 25 -18 25 -8 0
-73 -21 -78 -26 -2 -1 8 -20 22 -43 25 -40 26 -40 83 -38 57 2 58 2 63 -28 5
-27 9 -30 40 -27 45 5 46 7 33 42 -9 25 -8 29 11 34 11 3 31 6 43 6 12 0 24 4
27 9 5 7 -121 184 -128 180 0 -1 -16 -6 -33 -11z"/>
<path d="M1398 1653 c-23 -6 -23 -10 5 -50 20 -29 26 -32 57 -27 50 9 54 17
25 53 -26 30 -45 35 -87 24z"/>
<path d="M1333 1568 c-18 -6 -33 -14 -33 -17 0 -3 15 -24 34 -45 32 -39 33
-40 67 -26 52 20 54 25 23 64 -31 38 -39 40 -91 24z"/>
<path d="M1450 1440 l-45 -5 -3 -62 c-3 -61 -2 -63 21 -63 14 0 39 3 56 6 30
6 31 8 31 65 0 32 -3 59 -7 61 -5 2 -28 1 -53 -2z"/>
<path d="M1572 1402 l-43 -3 3 -62 3 -62 48 -3 c46 -3 47 -2 46 25 0 15 -4 46
-7 68 l-7 40 -43 -3z"/>
<path d="M1762 1205 c3 -64 7 -118 10 -120 2 -2 23 -7 46 -11 l42 -7 0 127 0
126 -51 0 -52 0 5 -115z"/>
<path d="M1391 1193 c-11 -38 -17 -71 -13 -75 4 -3 28 -9 53 -13 l45 -7 17 61
c9 33 17 63 17 66 0 8 -65 35 -84 35 -9 0 -22 -25 -35 -67z"/>
<path d="M1554 1242 c-9 -5 -54 -112 -54 -126 0 -6 100 -29 105 -24 2 2 7 38
11 81 l7 77 -29 0 c-16 0 -34 -4 -40 -8z"/>
<path d="M1637 1123 c-7 -11 -37 -116 -34 -118 6 -6 112 -34 115 -31 7 7 30
120 26 127 -2 3 -18 9 -36 12 -18 3 -40 8 -49 12 -10 3 -19 3 -22 -2z"/>
<path d="M1455 1003 c-25 -37 -45 -73 -45 -79 0 -5 18 -20 39 -32 l39 -22 46
86 c26 48 45 88 44 89 -13 10 -50 25 -62 25 -9 0 -36 -30 -61 -67z"/>
<path d="M1275 983 c-30 -42 -54 -81 -52 -87 2 -6 18 -19 36 -30 l33 -19 64
69 c35 38 63 72 64 75 0 3 -20 20 -44 37 l-45 32 -56 -77z"/>
<path d="M1684 834 l-48 -56 38 -35 38 -35 43 73 43 74 -29 17 c-16 10 -31 18
-33 18 -3 0 -26 -25 -52 -56z"/>
<path d="M1088 817 c-48 -28 -88 -54 -88 -57 0 -3 13 -21 28 -39 l28 -34 87
58 c48 32 87 63 87 70 0 11 -41 55 -51 55 -2 0 -43 -24 -91 -53z"/>
<path d="M1311 816 l-54 -55 27 -36 28 -36 66 63 c37 35 68 65 69 68 3 6 -63
50 -75 50 -4 0 -32 -25 -61 -54z"/>
<path d="M1549 677 l-57 -71 36 -44 36 -45 39 44 c21 24 50 59 64 77 25 32 25
33 7 53 -11 12 -30 29 -44 39 l-25 18 -56 -71z"/>
<path d="M405 675 c-20 -47 -20 -50 21 -74 49 -29 59 -27 72 17 6 20 13 41 14
46 2 4 -19 17 -45 27 l-48 19 -14 -35z"/>
<path d="M1310 633 c-36 -31 -66 -59 -68 -63 -1 -3 9 -28 24 -53 l26 -47 56
45 c32 24 69 55 84 67 l28 23 -41 43 c-22 23 -41 42 -42 41 -1 0 -31 -25 -67
-56z"/>
<path d="M556 624 c-3 -9 -6 -28 -6 -43 0 -27 2 -28 67 -34 37 -4 68 -5 70 -4
2 2 6 25 9 50 l7 47 -71 0 c-54 0 -71 -3 -76 -16z"/>
<path d="M347 553 c-2 -10 -8 -25 -11 -34 -5 -11 4 -20 29 -32 46 -22 50 -22
63 8 18 40 15 50 -21 63 -45 16 -54 15 -60 -5z"/>
<path d="M466 511 c-22 -77 -22 -77 40 -90 85 -16 84 -17 84 33 l0 44 -60 15
c-54 13 -60 13 -64 -2z"/>
<path d="M816 507 c-15 -11 -17 -21 -11 -55 4 -23 10 -42 14 -42 4 0 29 7 55
16 l48 16 -38 39 c-43 44 -43 44 -68 26z"/>
<path d="M298 474 c-11 -24 -9 -29 37 -73 l49 -46 7 25 c15 53 10 64 -36 92
l-46 28 -11 -26z"/>
<path d="M648 493 c-10 -2 -18 -14 -18 -26 0 -12 -3 -33 -7 -46 l-6 -24 73 6
c40 3 73 7 75 9 1 2 0 22 -3 46 l-4 42 -47 -1 c-25 -1 -54 -3 -63 -6z"/>
<path d="M275 374 c-20 -31 -16 -44 22 -66 l30 -17 16 34 c16 34 16 34 -12 55
-36 25 -35 25 -56 -6z"/>
<path d="M753 393 l-43 -4 0 -60 0 -59 60 0 60 0 0 65 c0 56 -2 65 -17 63 -10
-1 -37 -3 -60 -5z"/>
<path d="M1020 245 c0 -30 1 -55 3 -55 14 0 97 33 97 38 -1 8 -86 72 -95 72
-3 0 -5 -25 -5 -55z"/>
<path d="M520 227 l0 -45 58 -10 c31 -6 58 -9 60 -7 1 1 0 21 -4 43 -6 38 -9
42 -43 48 -20 3 -44 8 -53 11 -15 4 -18 -3 -18 -40z"/>
<path d="M660 206 c0 -30 4 -34 31 -40 83 -16 98 -7 83 52 -6 19 -13 22 -60
22 l-54 0 0 -34z"/>
</g>
</svg>
